<!-- © 2026 SaberParaTodos / WorldExams. Todos los derechos reservados. -->
<svg xmlns="http://www.w3.org/2000/svg" viewBox="0 0 200 120" role="img" aria-label="Nube esponjosa">
  <!-- Sombra suave inferior -->
  <path d="M 30 80 Q 20 80 20 65 Q 20 45 40 45 Q 50 25 75 25 Q 100 15 125 30 Q 150 20 165 40 Q 185 45 185 65 Q 185 85 165 85 Z" fill="#BFD9E8" opacity="0.6" transform="translate(0, 6)"/>
  <!-- Cuerpo principal de la nube -->
  <path d="M 30 80 Q 15 80 15 65 Q 15 45 35 45 Q 45 20 75 20 Q 100 10 125 25 Q 150 15 165 35 Q 185 40 185 62 Q 185 80 165 80 Z" fill="#FFFFFF"/>
  <!-- Detalles de volumen en bordes -->
  <circle cx="75" cy="42" r="28" fill="#FFFFFF"/>
  <circle cx="125" cy="40" r="32" fill="#FFFFFF"/>
  <circle cx="160" cy="55" r="22" fill="#FFFFFF"/>
  <circle cx="42" cy="58" r="22" fill="#FFFFFF"/>
</svg>
