<!-- © 2026 SaberParaTodos / WorldExams. Todos los derechos reservados. -->
<svg xmlns="http://www.w3.org/2000/svg" viewBox="0 0 200 200" role="img" aria-label="Nieve la osezna polar">
  <!-- Orejas -->
  <circle cx="68" cy="48" r="14" fill="#BFD9E8"/>
  <circle cx="68" cy="48" r="8" fill="#E8F1F5"/>
  <circle cx="132" cy="48" r="14" fill="#BFD9E8"/>
  <circle cx="132" cy="48" r="8" fill="#E8F1F5"/>

  <!-- Cuerpo principal -->
  <ellipse cx="100" cy="132" rx="55" ry="58" fill="#F4F8FA"/>

  <!-- Chaleco / Bufanda con color firma #BFD9E8 -->
  <path d="M 60 110 Q 100 128 140 110 Q 130 135 100 138 Q 70 135 60 110 Z" fill="#BFD9E8"/>

  <!-- Cabeza -->
  <circle cx="100" cy="72" r="44" fill="#FFFFFF"/>

  <!-- Hocico -->
  <ellipse cx="100" cy="82" rx="18" ry="14" fill="#E8F1F5"/>
  <ellipse cx="100" cy="76" rx="8" ry="5" fill="#232D36"/>
  <path d="M 96 82 Q 100 86 104 82" stroke="#232D36" stroke-width="2.5" fill="none" stroke-linecap="round"/>

  <!-- Mejillas -->
  <circle cx="72" cy="80" r="7" fill="#FFB7B2" opacity="0.6"/>
  <circle cx="128" cy="80" r="7" fill="#FFB7B2" opacity="0.6"/>

  <!-- Ojos plantilla común -->
  <circle cx="82" cy="62" r="10" fill="#FFFFFF"/>
  <circle cx="83" cy="64" r="5" fill="#232D36"/>
  <circle cx="85" cy="62" r="2" fill="#FFFFFF"/>

  <circle cx="118" cy="62" r="10" fill="#FFFFFF"/>
  <circle cx="119" cy="64" r="5" fill="#232D36"/>
  <circle cx="121" cy="62" r="2" fill="#FFFFFF"/>

  <!-- Patitas delanteras -->
  <ellipse cx="68" cy="142" rx="14" ry="22" fill="#E8F1F5"/>
  <ellipse cx="132" cy="142" rx="14" ry="22" fill="#E8F1F5"/>

  <!-- Patitas inferiores -->
  <rect x="76" y="176" width="18" height="14" rx="7" fill="#BFD9E8"/>
  <rect x="106" y="176" width="18" height="14" rx="7" fill="#BFD9E8"/>
</svg>
