<!-- © 2026 SaberParaTodos / WorldExams. Todos los derechos reservados. -->
<svg xmlns="http://www.w3.org/2000/svg" viewBox="0 0 800 450" role="img" aria-label="Tana abraza los mangos y dice que son suyos">
  <defs>
    <linearGradient id="bg2" x1="0" y1="0" x2="0" y2="1">
      <stop offset="0%" stop-color="#EBF5EE"/>
      <stop offset="100%" stop-color="#FDF6EC"/>
    </linearGradient>
  </defs>
  <!-- Fondo -->
  <rect width="800" height="450" fill="url(#bg2)"/>
  <path d="M 0 360 Q 400 310 800 360 L 800 450 L 0 450 Z" fill="#4FB6A3"/>

  <!-- Nido grande en la rama -->
  <ellipse cx="400" cy="310" rx="160" ry="50" fill="#8B5A2B"/>
  <ellipse cx="400" cy="300" rx="140" ry="38" fill="#D2B48C"/>

  <!-- Tana abrazando los 5 mangos con las alas -->
  <g transform="translate(300, 130)">
    <!-- Cuerpo tucan -->
    <ellipse cx="100" cy="126" rx="52" ry="60" fill="#2F3A45"/>
    <circle cx="100" cy="62" r="40" fill="#2F3A45"/>
    <ellipse cx="100" cy="140" rx="29" ry="35" fill="#FFF6E8"/>

    <!-- 5 mangos dentro del nido frente al pecho -->
    <ellipse cx="75" cy="150" rx="14" ry="20" fill="#FF9F43" transform="rotate(-20 75 150)"/>
    <ellipse cx="90" cy="145" rx="14" ry="20" fill="#FF9F43" transform="rotate(-5 90 145)"/>
    <ellipse cx="105" cy="152" rx="14" ry="20" fill="#FF9F43" transform="rotate(10 105 152)"/>
    <ellipse cx="120" cy="146" rx="14" ry="20" fill="#FF9F43" transform="rotate(25 120 146)"/>
    <ellipse cx="100" cy="135" rx="14" ry="20" fill="#FFB765"/>

    <!-- Alas abrazando -->
    <path d="M 40 120 Q 20 160 80 165 Z" fill="#232D36"/>
    <path d="M 160 120 Q 180 160 120 165 Z" fill="#232D36"/>

    <!-- pico -->
    <path d="M100 50 L162 71 Q172 74 162 79 L100 92 Z" fill="#FF9F43"/>
    <!-- ojos alegres (guiño/sonrientes) -->
    <circle cx="84" cy="52" r="11" fill="#FFFFFF"/>
    <circle cx="85" cy="54" r="5" fill="#232D36"/>
    <circle cx="87" cy="52" r="2" fill="#FFFFFF"/>
    <circle cx="114" cy="52" r="11" fill="#FFFFFF"/>
    <circle cx="115" cy="54" r="5" fill="#232D36"/>
    <circle cx="117" cy="52" r="2" fill="#FFFFFF"/>
  </g>

  <!-- Hoja decorativa -->
  <path d="M 200 340 Q 250 300 280 340 Z" fill="#3D7D52"/>
</svg>
